<svg width="147" height="36" viewBox="0 0 147 36" fill="none" xmlns="http://www.w3.org/2000/svg">
<g clip-path="url(#clip0_285_144)">
<path d="M25.21 14.82C25.21 11.97 25.21 9.13004 25.21 6.28004C25.21 5.81004 25.25 5.20004 24.79 5.07004C24.4 4.96004 24.24 5.58004 24.02 5.90004C23.33 6.89004 22.68 7.91004 21.99 8.91004C21.72 9.28004 21.6 9.67004 21.6 10.14C21.61 14.03 21.6 17.91 21.62 21.8C21.62 22.29 21.48 22.58 21.05 22.82C18.48 24.25 15.92 25.7 13.36 27.15L13.33 27.16C13.22 27.22 13.13 27.25 13.03 27.25C12.93 27.25 12.84 27.22 12.73 27.16C10.17 25.71 7.6 24.26 5.03 22.82H5.02H5.01C4.58 22.58 4.44 22.29 4.44 21.8C4.46 17.91 4.45 14.03 4.46 10.14C4.46 9.68004 4.34 9.29004 4.07 8.90004C3.38 7.91004 2.73 6.89004 2.04 5.90004C1.82 5.58004 1.66 4.96004 1.27 5.07004C0.809999 5.21004 0.849999 5.82004 0.849999 6.28004C0.849999 9.13004 0.849999 11.97 0.849999 14.82C0.859999 17.73 0.859999 20.65 0.849999 23.56C0.849999 24.35 1.2 24.92 1.9 25.29C2.16 25.43 2.43 25.57 2.69 25.72C3.15 25.98 3.61 26.23 4.07 26.49C6.73 27.99 9.39 29.5 12.05 30.99C12.37 31.17 12.7 31.26 13.03 31.25C13.36 31.26 13.69 31.17 14.01 30.99C16.68 29.5 19.33 27.99 21.99 26.49C22.45 26.23 22.91 25.98 23.37 25.72C23.63 25.58 23.9 25.43 24.16 25.29C24.86 24.92 25.21 24.35 25.21 23.56C25.21 20.65 25.21 17.73 25.21 14.82Z" fill="#2568FF"/>
<path d="M12.97 1.14012C13.51 1.10012 13.97 1.36012 14.45 1.50012C17.36 2.36012 20.25 3.25012 23.15 4.13012C23.71 4.30012 23.72 4.38012 23.4 4.86012C22.87 5.63012 22.35 6.41012 21.84 7.19012C21.68 7.43012 21.51 7.48012 21.24 7.40012C18.67 6.61012 16.1 5.83012 13.53 5.04012C13.17 4.93012 12.84 4.94012 12.48 5.04012C9.93003 5.84012 7.39003 6.61012 4.86003 7.39012C4.59003 7.48012 4.39003 7.45012 4.23003 7.22012C3.66003 6.37012 3.08003 5.52012 2.53003 4.67012C2.27003 4.27012 2.65003 4.21012 2.89003 4.13012C3.67003 3.88012 4.45003 3.65012 5.23003 3.41012C7.64003 2.68012 10.05 1.94012 12.46 1.21012C12.63 1.17012 12.8 1.16012 12.97 1.14012Z" fill="#2568FF"/>
<path d="M18.6301 11.5001C17.7801 11.2501 16.9301 11.0001 16.0901 10.7401C15.1801 10.4701 14.2701 10.1801 13.3601 9.91006C13.1201 9.84007 12.8901 9.83007 12.6501 9.90007C10.9701 10.4101 9.29009 10.9001 7.62009 11.4301C7.28009 11.5401 7.06009 11.4801 6.88009 11.2001C6.36009 10.4001 5.83009 9.60006 5.31009 8.81007C5.09009 8.48007 5.22009 8.33007 5.55009 8.23007C6.92009 7.82007 8.28009 7.40006 9.65009 6.98006C10.3301 6.77007 11.0201 6.58007 11.7001 6.34007C12.5001 6.06007 13.2801 6.02007 14.1001 6.28007C16.2001 6.94007 18.3001 7.56007 20.4001 8.20007C20.9401 8.37007 20.9701 8.47006 20.6601 8.95006C20.1601 9.70006 19.6601 10.4501 19.1501 11.2001C19.0301 11.3801 18.9001 11.5701 18.6301 11.5001Z" fill="#3C83EC"/>
<path d="M13.0401 10.9601C13.7001 11.0001 14.3601 11.3101 15.0501 11.4801C15.9201 11.7001 16.7801 11.9801 17.6401 12.2601C18.1901 12.4301 18.2101 12.5401 17.9001 13.0001C17.4201 13.7201 16.9301 14.4401 16.4601 15.1701C16.2401 15.5101 16.0001 15.5901 15.6001 15.4501C14.8101 15.1801 14.0101 14.9601 13.2101 14.7101C13.0001 14.6501 12.8101 14.6901 12.6101 14.7501C11.8501 14.9901 11.0801 15.2101 10.3101 15.4501C10.0301 15.5401 9.82011 15.5101 9.65011 15.2501C9.14011 14.4701 8.61011 13.6901 8.09011 12.9201C7.93011 12.6801 7.82011 12.4401 8.21011 12.3201C9.71011 11.8601 11.2001 11.4101 12.7001 10.9601C12.7901 10.9601 12.8801 10.9701 13.0401 10.9601Z" fill="#44AFFF"/>
<path d="M14.7801 17.0601C14.7801 18.1101 14.0701 18.8401 13.0401 18.8401C12.0701 18.8401 11.2401 18.0401 11.2201 17.0801C11.2001 16.1601 12.0701 15.2901 13.0201 15.2801C13.8901 15.2701 14.9001 16.0901 14.7801 17.0601Z" fill="#33D9FF"/>
<path d="M41.2066 23.5347C38.9246 23.5347 37.1884 23.0221 35.9978 21.9969C34.8072 20.9551 34.212 19.4669 34.212 17.5322V5.50249H37.8085V17.5322C37.8085 19.6157 38.9164 20.6575 41.1322 20.6575C42.2401 20.6575 43.0751 20.3681 43.6373 19.7894C44.1995 19.2106 44.4806 18.4417 44.4806 17.4826V5.50249H48.0772V17.5322C48.0772 19.4504 47.4902 20.9303 46.3161 21.9721C45.1586 23.0138 43.4554 23.5347 41.2066 23.5347Z" fill="#003660"/>
<path d="M50.4834 23.2371V10.5128H53.7327V12.2243H53.8071C54.6174 10.8518 55.8493 10.1656 57.5029 10.1656C58.2966 10.1656 58.9994 10.3723 59.6112 10.7857C60.2395 11.1825 60.7108 11.7199 61.025 12.3979H61.0746C62.0006 10.9097 63.2738 10.1656 64.8943 10.1656C66.2172 10.1656 67.2424 10.5707 67.97 11.3809C68.7141 12.1747 69.0861 13.2743 69.0861 14.6798V23.2371H65.7129V15.2503C65.7129 13.7952 65.0597 13.0676 63.7534 13.0676C63.0423 13.0676 62.4801 13.3239 62.0667 13.8365C61.6699 14.3326 61.4714 15.0023 61.4714 15.8456V23.2371H58.0982V15.2503C58.0982 13.7952 57.445 13.0676 56.1387 13.0676C55.4607 13.0676 54.9068 13.3239 54.4768 13.8365C54.0634 14.3326 53.8567 15.0023 53.8567 15.8456V23.2371H50.4834Z" fill="#003660"/>
<path d="M82.1079 21.6992C80.8677 22.9725 79.272 23.6091 77.3208 23.6091C75.3696 23.6091 73.7739 22.9725 72.5337 21.6992C71.2935 20.4095 70.6734 18.8055 70.6734 16.8873C70.6734 14.9692 71.2935 13.3735 72.5337 12.1002C73.7739 10.8105 75.3696 10.1656 77.3208 10.1656C79.272 10.1656 80.8677 10.8105 82.1079 12.1002C83.3481 13.3735 83.9681 14.9692 83.9681 16.8873C83.9681 18.8055 83.3481 20.4095 82.1079 21.6992ZM77.3208 21.0295C78.3295 21.0295 79.1149 20.6575 79.6771 19.9134C80.2559 19.1527 80.5453 18.1441 80.5453 16.8873C80.5453 15.6306 80.2559 14.6219 79.6771 13.8613C79.1149 13.1007 78.3295 12.7203 77.3208 12.7203C76.2956 12.7203 75.5019 13.1007 74.9396 13.8613C74.3774 14.6054 74.0963 15.6141 74.0963 16.8873C74.0963 18.1441 74.3774 19.1527 74.9396 19.9134C75.5019 20.6575 76.2956 21.0295 77.3208 21.0295Z" fill="#003660"/>
<path d="M85.582 27.4041V24.7501H86.7725C88.0293 24.7501 88.6576 24.1713 88.6576 23.0138C88.6576 22.4516 88.3352 21.3024 87.6903 19.5661L84.2674 10.5128H87.8143L89.6994 16.2424L90.5179 19.0204H90.5675C90.799 17.9456 91.047 17.0196 91.3116 16.2424L93.0975 10.5128H96.4956L92.0557 23.5595C91.5596 25.0147 90.9974 26.0151 90.3691 26.5607C89.7572 27.123 88.823 27.4041 87.5663 27.4041H85.582Z" fill="#003660"/>
<path d="M105.399 23.2371C105.233 23.0221 105.101 22.5508 105.002 21.8233H104.952C104.589 22.3689 104.126 22.7906 103.563 23.0882C103.001 23.3859 102.216 23.5347 101.207 23.5347C99.8676 23.5347 98.7928 23.1957 97.9825 22.5178C97.1723 21.8398 96.7672 20.8807 96.7672 19.6405C96.7672 18.3508 97.2136 17.4082 98.1066 16.8129C98.9995 16.2011 100.256 15.7794 101.877 15.5479C103.067 15.3826 103.878 15.2172 104.307 15.0519C104.737 14.87 104.952 14.5558 104.952 14.1093C104.952 13.6463 104.77 13.2825 104.407 13.018C104.043 12.7369 103.514 12.5963 102.819 12.5963C101.281 12.5963 100.463 13.1916 100.364 14.3822H97.3625C97.4121 13.1751 97.8999 12.1747 98.8259 11.3809C99.7519 10.5872 101.091 10.1904 102.844 10.1904C106.416 10.1904 108.202 11.753 108.202 14.8782V21.352C108.202 22.3111 108.35 22.8981 108.648 23.113V23.2371H105.399ZM102.026 21.1784C102.952 21.1784 103.679 20.9386 104.208 20.4591C104.754 19.9795 105.027 19.409 105.027 18.7476V16.8377C104.663 17.0527 103.878 17.3007 102.67 17.5818C101.711 17.7968 101.033 18.0448 100.637 18.3259C100.24 18.5905 100.041 19.0039 100.041 19.5661C100.041 20.641 100.703 21.1784 102.026 21.1784Z" fill="#003660"/>
<path d="M111.029 23.2371V5.50249H113.385L121.471 17.8299L122.761 20.1118H122.811V5.50249H124.894V23.2371H122.612L114.477 10.8849L113.162 8.67735H113.113V23.2371H111.029Z" fill="#003660"/>
<path d="M133.526 23.5843C131.625 23.5843 130.112 22.9477 128.987 21.6744C127.88 20.3846 127.326 18.7724 127.326 16.8377C127.326 14.9361 127.888 13.3404 129.012 12.0506C130.153 10.7443 131.617 10.0912 133.402 10.0912C135.288 10.0912 136.743 10.7526 137.768 12.0754C138.793 13.3818 139.306 15.1263 139.306 17.309H129.384C129.467 18.6649 129.864 19.7728 130.575 20.6327C131.302 21.476 132.286 21.8977 133.526 21.8977C135.445 21.8977 136.627 21.0213 137.073 19.2685H139.033C138.735 20.641 138.107 21.7075 137.148 22.4681C136.189 23.2123 134.982 23.5843 133.526 23.5843ZM136.081 12.7699C135.436 12.0424 134.543 11.6786 133.402 11.6786C132.261 11.6786 131.352 12.0589 130.674 12.8195C130.013 13.5802 129.599 14.5723 129.434 15.796H137.148C137.082 14.5062 136.726 13.4975 136.081 12.7699Z" fill="#003660"/>
<path d="M140.347 12.0506V10.4136H142.208V6.37061H144.217V10.4136H146.697V12.0506H144.217V20.3846C144.217 21.1784 144.647 21.5752 145.507 21.5752C145.87 21.5752 146.226 21.5173 146.573 21.4016H146.648V23.1378C146.102 23.2536 145.564 23.3115 145.035 23.3115C143.15 23.3115 142.208 22.4847 142.208 20.8311V12.0506H140.347Z" fill="#003660"/>
<path d="M94.1154 32.5205L95.38 29.2445H95.6503L96.9194 32.5205H96.672L96.2688 31.4713H94.7614L94.3582 32.5205H94.1154ZM95.3387 29.9684L94.8393 31.2697H96.1909L95.6961 29.9684L95.5174 29.4828H95.5082C95.4472 29.6691 95.3906 29.831 95.3387 29.9684ZM99.069 32.5801C98.6719 32.5801 98.3634 32.4793 98.1435 32.2777C97.9266 32.0761 97.809 31.8119 97.7907 31.485H98.0335C98.0458 31.7599 98.1435 31.9768 98.3268 32.1356C98.5131 32.2914 98.759 32.3693 99.0644 32.3693C99.321 32.3693 99.5318 32.3036 99.6967 32.1723C99.8617 32.0409 99.9441 31.8623 99.9441 31.6362C99.9441 31.4071 99.8739 31.2468 99.7334 31.1551C99.5929 31.0604 99.3195 30.9749 98.9132 30.8986C98.5742 30.8375 98.3222 30.7443 98.1572 30.6191C97.9923 30.4938 97.9098 30.3029 97.9098 30.0463C97.9098 29.7898 98.0091 29.582 98.2076 29.4232C98.4092 29.2613 98.6719 29.1804 98.9957 29.1804C99.3195 29.1804 99.5761 29.2644 99.7655 29.4324C99.9579 29.5973 100.066 29.8172 100.091 30.0922H99.8525C99.8311 29.8692 99.7425 29.6966 99.5868 29.5744C99.431 29.4522 99.2355 29.3911 99.0003 29.3911C98.7376 29.3911 98.5299 29.4522 98.3772 29.5744C98.2275 29.6935 98.1527 29.8493 98.1527 30.0418C98.1527 30.2342 98.2183 30.3762 98.3497 30.4679C98.4841 30.5564 98.7208 30.6313 99.0599 30.6924C99.2065 30.7199 99.3287 30.7474 99.4264 30.7748C99.5241 30.7993 99.6249 30.8359 99.7288 30.8848C99.8357 30.9306 99.9197 30.9841 99.9808 31.0452C100.042 31.1063 100.092 31.1857 100.132 31.2834C100.172 31.3781 100.192 31.4896 100.192 31.6179C100.192 31.8989 100.088 32.1295 99.88 32.3097C99.6753 32.49 99.405 32.5801 99.069 32.5801ZM102.313 32.5205H102.089V32.1585H102.08C101.991 32.2899 101.887 32.3922 101.768 32.4655C101.652 32.5388 101.502 32.5755 101.319 32.5755C101.096 32.5755 100.913 32.5113 100.769 32.3831C100.629 32.2517 100.558 32.0715 100.558 31.8424V30.1517H100.783V31.8195C100.783 32.0089 100.833 32.1509 100.934 32.2456C101.035 32.3372 101.177 32.3831 101.36 32.3831C101.568 32.3831 101.74 32.3128 101.878 32.1723C102.018 32.0318 102.089 31.8577 102.089 31.65V30.1517H102.313V32.5205ZM103.814 32.5801C103.459 32.5801 103.189 32.4304 103.003 32.1311H102.994V32.5205H102.769V29.2445H102.994V30.6053H103.003C103.183 30.2693 103.459 30.1013 103.832 30.1013C104.113 30.1013 104.342 30.2128 104.519 30.4358C104.7 30.6557 104.79 30.9581 104.79 31.343C104.79 31.7034 104.701 31.9997 104.524 32.2319C104.35 32.464 104.113 32.5801 103.814 32.5801ZM103.805 32.3922C104.046 32.3922 104.232 32.2929 104.364 32.0944C104.495 31.8959 104.561 31.6469 104.561 31.3476C104.561 31.0268 104.493 30.7718 104.359 30.5824C104.225 30.39 104.038 30.2938 103.8 30.2938C103.543 30.2938 103.34 30.393 103.191 30.5916C103.044 30.7871 102.971 31.0391 102.971 31.3476C102.971 31.6683 103.044 31.9233 103.191 32.1127C103.337 32.2991 103.542 32.3922 103.805 32.3922ZM105.915 32.5801C105.622 32.5801 105.396 32.5068 105.237 32.3601C105.078 32.2105 104.993 32.0257 104.98 31.8057H105.21C105.225 31.9951 105.295 32.1402 105.42 32.241C105.549 32.3388 105.714 32.3876 105.915 32.3876C106.114 32.3876 106.269 32.3418 106.382 32.2502C106.495 32.1585 106.552 32.0348 106.552 31.8791C106.552 31.7508 106.509 31.6545 106.424 31.5904C106.338 31.5232 106.166 31.4591 105.906 31.398C105.619 31.3308 105.405 31.2513 105.265 31.1597C105.127 31.0681 105.058 30.926 105.058 30.7336C105.058 30.5412 105.135 30.3884 105.287 30.2754C105.44 30.1594 105.633 30.1013 105.865 30.1013C106.363 30.1013 106.644 30.3258 106.708 30.7748H106.488C106.473 30.6252 106.41 30.5091 106.3 30.4266C106.19 30.3411 106.045 30.2983 105.865 30.2983C105.678 30.2983 105.535 30.338 105.434 30.4175C105.333 30.4969 105.283 30.6007 105.283 30.729C105.283 30.8573 105.333 30.952 105.434 31.0131C105.538 31.0711 105.723 31.1322 105.988 31.1964C106.26 31.2605 106.459 31.3399 106.584 31.4346C106.712 31.5263 106.777 31.6759 106.777 31.8836C106.777 32.0852 106.7 32.2517 106.547 32.3831C106.395 32.5144 106.184 32.5801 105.915 32.5801ZM107.128 32.5205V30.1517H107.352V32.5205H107.128ZM107.128 29.6111V29.2445H107.352V29.6111H107.128ZM108.71 32.5801C108.401 32.5801 108.157 32.4655 107.976 32.2364C107.799 32.0043 107.711 31.7065 107.711 31.343C107.711 30.9612 107.805 30.6588 107.995 30.4358C108.184 30.2128 108.421 30.1013 108.705 30.1013C109.078 30.1013 109.345 30.2617 109.507 30.5824H109.516V29.2445H109.74V32.5205H109.516V32.1265H109.507C109.327 32.4289 109.061 32.5801 108.71 32.5801ZM108.137 32.099C108.271 32.2945 108.465 32.3922 108.719 32.3922C108.972 32.3922 109.172 32.2975 109.319 32.1081C109.466 31.9188 109.539 31.6652 109.539 31.3476C109.539 31.0391 109.467 30.7871 109.323 30.5916C109.18 30.393 108.98 30.2938 108.723 30.2938C108.482 30.2938 108.291 30.39 108.151 30.5824C108.01 30.7748 107.94 31.0299 107.94 31.3476C107.94 31.65 108.005 31.9004 108.137 32.099ZM110.21 32.5205V30.1517H110.435V32.5205H110.21ZM110.21 29.6111V29.2445H110.435V29.6111H110.21ZM112.723 32.5572C112.628 32.5572 112.551 32.5312 112.493 32.4793C112.438 32.4243 112.411 32.3433 112.411 32.2364V32.154H112.397C112.196 32.438 111.91 32.5801 111.54 32.5801C111.314 32.5801 111.131 32.5236 110.991 32.4105C110.853 32.2945 110.784 32.1311 110.784 31.9203C110.784 31.7859 110.807 31.6729 110.853 31.5812C110.902 31.4865 110.974 31.4132 111.068 31.3613C111.166 31.3094 111.264 31.2727 111.362 31.2513C111.459 31.2269 111.579 31.2071 111.719 31.1918C112.012 31.1643 112.2 31.1337 112.283 31.1001C112.365 31.0665 112.406 30.9963 112.406 30.8894V30.8069C112.406 30.4648 112.208 30.2938 111.811 30.2938C111.368 30.2938 111.13 30.4709 111.096 30.8252H110.867C110.916 30.3426 111.23 30.1013 111.811 30.1013C112.357 30.1013 112.631 30.3411 112.631 30.8207V32.2135C112.631 32.3235 112.681 32.3785 112.782 32.3785C112.81 32.3785 112.846 32.3708 112.892 32.3556H112.906V32.5205C112.857 32.5449 112.796 32.5572 112.723 32.5572ZM111.563 32.3922C111.82 32.3922 112.025 32.3204 112.177 32.1769C112.33 32.0333 112.406 31.8668 112.406 31.6775V31.2376C112.29 31.2956 112.07 31.343 111.747 31.3796C111.621 31.3949 111.522 31.4102 111.449 31.4255C111.379 31.4407 111.305 31.4667 111.229 31.5033C111.152 31.54 111.097 31.5935 111.064 31.6637C111.03 31.734 111.013 31.8225 111.013 31.9295C111.013 32.0883 111.064 32.2059 111.165 32.2823C111.265 32.3556 111.398 32.3922 111.563 32.3922ZM113.388 30.1517V30.6191H113.397C113.482 30.448 113.594 30.3228 113.731 30.2434C113.854 30.1731 113.999 30.138 114.167 30.138V30.3625C114.038 30.3594 113.927 30.3778 113.832 30.4175C113.701 30.4755 113.594 30.5702 113.511 30.7015C113.429 30.8329 113.388 30.9826 113.388 31.1505V32.5205H113.163V30.1517H113.388ZM114.725 33.304C114.673 33.304 114.614 33.2948 114.547 33.2765V33.0749H114.556C114.617 33.0902 114.679 33.0978 114.744 33.0978C114.948 33.0978 115.09 32.9833 115.17 32.7542L115.238 32.5572L114.331 30.1517H114.565L115.142 31.7187L115.348 32.3097H115.358C115.431 32.0745 115.495 31.8775 115.55 31.7187L116.1 30.1517H116.329L115.376 32.8046C115.309 32.9909 115.225 33.1207 115.124 33.194C115.023 33.2673 114.89 33.304 114.725 33.304ZM119.061 32.2364C118.871 32.4655 118.613 32.5801 118.286 32.5801C117.959 32.5801 117.7 32.464 117.507 32.2319C117.318 31.9997 117.223 31.7019 117.223 31.3384C117.223 30.9749 117.318 30.6786 117.507 30.4495C117.7 30.2174 117.959 30.1013 118.286 30.1013C118.613 30.1013 118.871 30.2159 119.061 30.445C119.253 30.674 119.349 30.9719 119.349 31.3384C119.349 31.7049 119.253 32.0043 119.061 32.2364ZM117.672 32.0898C117.819 32.2884 118.024 32.3876 118.286 32.3876C118.549 32.3876 118.754 32.2884 118.9 32.0898C119.047 31.8913 119.12 31.6408 119.12 31.3384C119.12 31.036 119.047 30.7855 118.9 30.587C118.754 30.3884 118.549 30.2892 118.286 30.2892C118.024 30.2892 117.819 30.3884 117.672 30.587C117.526 30.7855 117.452 31.036 117.452 31.3384C117.452 31.6408 117.526 31.8913 117.672 32.0898ZM119.45 30.3396V30.1517H119.803V29.7027C119.803 29.385 119.972 29.2262 120.312 29.2262H120.454V29.4232H120.325C120.215 29.4232 120.137 29.4476 120.092 29.4965C120.049 29.5423 120.027 29.6126 120.027 29.7073V30.1517H120.467V30.3396H120.027V32.5205H119.803V30.3396H119.45Z" fill="#003660"/>
<path d="M121.597 32.5205V29.2445H123.035C123.408 29.2445 123.694 29.3468 123.892 29.5515C124.088 29.7531 124.186 30.002 124.186 30.2983C124.186 30.6099 124.088 30.8604 123.892 31.0497C123.697 31.2391 123.43 31.3338 123.09 31.3338H122.284V32.5205H121.597ZM122.284 29.8218V30.7932H122.971C123.142 30.7932 123.274 30.7504 123.365 30.6649C123.457 30.5763 123.503 30.4556 123.503 30.3029C123.503 30.1502 123.457 30.0326 123.365 29.9501C123.274 29.8646 123.145 29.8218 122.98 29.8218H122.284ZM124.514 32.5205V29.2445H126.017C126.332 29.2445 126.585 29.3285 126.778 29.4965C126.973 29.6645 127.071 29.8844 127.071 30.1563C127.071 30.5748 126.871 30.839 126.471 30.949V30.9627C126.626 31.0085 126.742 31.0818 126.819 31.1826C126.898 31.2804 126.949 31.427 126.97 31.6225C126.976 31.6958 126.982 31.7828 126.988 31.8836C126.997 31.9814 127.004 32.0593 127.007 32.1173C127.013 32.1753 127.019 32.2334 127.025 32.2914C127.034 32.3495 127.045 32.3953 127.057 32.4289C127.072 32.4594 127.091 32.4793 127.112 32.4884V32.5205H126.475C126.463 32.5144 126.452 32.5037 126.443 32.4884C126.434 32.4701 126.426 32.4457 126.42 32.4151C126.414 32.3846 126.408 32.354 126.402 32.3235C126.399 32.2899 126.394 32.2487 126.388 32.1998C126.385 32.1479 126.382 32.1036 126.379 32.0669C126.376 32.0272 126.371 31.9768 126.365 31.9157C126.362 31.8516 126.359 31.8012 126.356 31.7645C126.329 31.3919 126.115 31.2055 125.715 31.2055H125.178V32.5205H124.514ZM125.178 29.7806V30.6924H125.884C126.058 30.6924 126.191 30.6511 126.283 30.5687C126.377 30.4862 126.425 30.3778 126.425 30.2434C126.425 30.1059 126.38 29.9944 126.292 29.9089C126.203 29.8234 126.073 29.7806 125.902 29.7806H125.178ZM128.785 32.5755C128.364 32.5755 128.043 32.4808 127.823 32.2914C127.603 32.099 127.493 31.8241 127.493 31.4667V29.2445H128.158V31.4667C128.158 31.8516 128.362 32.044 128.772 32.044C128.976 32.044 129.131 31.9905 129.235 31.8836C129.338 31.7767 129.39 31.6347 129.39 31.4575V29.2445H130.055V31.4667C130.055 31.821 129.946 32.0944 129.729 32.2868C129.516 32.4793 129.201 32.5755 128.785 32.5755ZM130.532 32.5205V29.2445H131.206L132.296 31.0727C132.327 31.1246 132.36 31.1887 132.397 31.2651C132.437 31.3415 132.467 31.4056 132.489 31.4575L132.525 31.5308H132.534C132.522 31.3048 132.516 31.1154 132.516 30.9627V29.2445H133.171V32.5205H132.53L131.412 30.7107C131.381 30.6588 131.346 30.5962 131.307 30.5228C131.267 30.4465 131.236 30.3823 131.215 30.3304L131.178 30.2571H131.169C131.181 30.4862 131.187 30.6771 131.187 30.8298V32.5205H130.532ZM133.673 32.5205V29.2445H136.083V29.8035H134.338V30.5366H135.868V31.0818H134.338V31.9661H136.097V32.5205H133.673ZM136.51 32.5205V29.2445H137.788C138.222 29.2445 138.57 29.4018 138.833 29.7164C139.096 30.028 139.227 30.4282 139.227 30.9169C139.227 31.482 139.053 31.9111 138.705 32.2044C138.451 32.4151 138.127 32.5205 137.733 32.5205H136.51ZM137.174 31.9478H137.688C137.99 31.9478 138.21 31.8607 138.347 31.6866C138.485 31.5095 138.553 31.2529 138.553 30.9169C138.553 30.5809 138.48 30.3136 138.334 30.1151C138.19 29.9135 137.981 29.8127 137.706 29.8127H137.174V31.9478ZM141.989 32.5205L141.966 32.0807H141.957C141.756 32.4197 141.449 32.5892 141.036 32.5892C140.557 32.5892 140.173 32.4304 139.886 32.1127C139.602 31.7951 139.46 31.3888 139.46 30.894C139.46 30.3319 139.639 29.886 139.996 29.5561C140.271 29.3056 140.622 29.1804 141.05 29.1804C141.45 29.1804 141.769 29.2796 142.008 29.4782C142.249 29.6767 142.397 29.9425 142.452 30.2754H141.801C141.762 30.1105 141.679 29.9791 141.554 29.8814C141.429 29.7806 141.265 29.7302 141.064 29.7302C140.767 29.7302 140.538 29.8386 140.376 30.0555C140.218 30.2724 140.138 30.5519 140.138 30.894C140.138 31.233 140.221 31.511 140.386 31.7279C140.554 31.9447 140.777 32.0532 141.055 32.0532C141.299 32.0532 141.501 31.9783 141.659 31.8287C141.818 31.6759 141.898 31.5033 141.898 31.3109V31.2926H141.11V30.7794H142.489V32.5205H141.989ZM142.953 32.5205V29.2445H145.363V29.8035H143.618V30.5366H145.148V31.0818H143.618V31.9661H145.377V32.5205H142.953Z" fill="#003660"/>
</g>
<defs>
<clipPath id="clip0_285_144">
<rect width="146" height="34.24" fill="white" transform="translate(0.5 0.880005)"/>
</clipPath>
</defs>
</svg>
